<svg width="24" height="24" fill="none" xmlns="http://www.w3.org/2000/svg"><mask id="a" style="mask-type:luminance" maskUnits="userSpaceOnUse" x="2" y="2" width="21" height="20"><path fill-rule="evenodd" clip-rule="evenodd" d="M16 13a1 1 0 1 1 0-2.002A1 1 0 0 1 16 13Zm-4 0a1 1 0 1 1 0-2.002A1 1 0 0 1 12 13Zm-4 0a1 1 0 1 1 0-2.002A1 1 0 0 1 8 13Zm11.07-8.072c-2.283-2.284-5.444-3.303-8.673-2.804-4.077.636-7.457 3.92-8.22 7.987a10.016 10.016 0 0 0 .61 5.765c.099.23.129.446.09.64l-.857 4.287a.999.999 0 0 0 1.176 1.176l4.283-.856c.246-.047.485.022.644.088 1.814.767 3.808.977 5.765.611 4.067-.763 7.35-4.143 7.987-8.22.503-3.228-.52-6.389-2.804-8.674Z" fill="#fff"/></mask><g mask="url(#a)"><path d="M0 0h24v24H0z"/></g><g filter="url(#b)"><circle cx="8" cy="12" r="1" fill="#fff"/></g><g filter="url(#c)"><circle cx="12" cy="12" r="1" fill="#fff"/></g><g filter="url(#d)"><circle cx="16" cy="12" r="1" fill="#fff"/></g><defs><filter id="b" x="5" y="10" width="6" height="6" filterUnits="userSpaceOnUse" color-interpolation-filters="sRGB"><feFlood flood-opacity="0" result="BackgroundImageFix"/><feColorMatrix in="SourceAlpha" values="0 0 0 0 0 0 0 0 0 0 0 0 0 0 0 0 0 0 127 0" result="hardAlpha"/><feOffset dy="1"/><feGaussianBlur stdDeviation=".5"/><feColorMatrix values="0 0 0 0 0 0 0 0 0 0 0 0 0 0 0 0 0 0 0.03 0"/><feBlend in2="BackgroundImageFix" result="effect1_dropShadow_150_1264"/><feColorMatrix in="SourceAlpha" values="0 0 0 0 0 0 0 0 0 0 0 0 0 0 0 0 0 0 127 0" result="hardAlpha"/><feOffset dy="1"/><feGaussianBlur stdDeviation="1"/><feColorMatrix values="0 0 0 0 0 0 0 0 0 0 0 0 0 0 0 0 0 0 0.03 0"/><feBlend in2="effect1_dropShadow_150_1264" result="effect2_dropShadow_150_1264"/><feBlend in="SourceGraphic" in2="effect2_dropShadow_150_1264" result="shape"/></filter><filter id="c" x="9" y="10" width="6" height="6" filterUnits="userSpaceOnUse" color-interpolation-filters="sRGB"><feFlood flood-opacity="0" result="BackgroundImageFix"/><feColorMatrix in="SourceAlpha" values="0 0 0 0 0 0 0 0 0 0 0 0 0 0 0 0 0 0 127 0" result="hardAlpha"/><feOffset dy="1"/><feGaussianBlur stdDeviation=".5"/><feColorMatrix values="0 0 0 0 0 0 0 0 0 0 0 0 0 0 0 0 0 0 0.03 0"/><feBlend in2="BackgroundImageFix" result="effect1_dropShadow_150_1264"/><feColorMatrix in="SourceAlpha" values="0 0 0 0 0 0 0 0 0 0 0 0 0 0 0 0 0 0 127 0" result="hardAlpha"/><feOffset dy="1"/><feGaussianBlur stdDeviation="1"/><feColorMatrix values="0 0 0 0 0 0 0 0 0 0 0 0 0 0 0 0 0 0 0.03 0"/><feBlend in2="effect1_dropShadow_150_1264" result="effect2_dropShadow_150_1264"/><feBlend in="SourceGraphic" in2="effect2_dropShadow_150_1264" result="shape"/></filter><filter id="d" x="13" y="10" width="6" height="6" filterUnits="userSpaceOnUse" color-interpolation-filters="sRGB"><feFlood flood-opacity="0" result="BackgroundImageFix"/><feColorMatrix in="SourceAlpha" values="0 0 0 0 0 0 0 0 0 0 0 0 0 0 0 0 0 0 127 0" result="hardAlpha"/><feOffset dy="1"/><feGaussianBlur stdDeviation=".5"/><feColorMatrix values="0 0 0 0 0 0 0 0 0 0 0 0 0 0 0 0 0 0 0.03 0"/><feBlend in2="BackgroundImageFix" result="effect1_dropShadow_150_1264"/><feColorMatrix in="SourceAlpha" values="0 0 0 0 0 0 0 0 0 0 0 0 0 0 0 0 0 0 127 0" result="hardAlpha"/><feOffset dy="1"/><feGaussianBlur stdDeviation="1"/><feColorMatrix values="0 0 0 0 0 0 0 0 0 0 0 0 0 0 0 0 0 0 0.03 0"/><feBlend in2="effect1_dropShadow_150_1264" result="effect2_dropShadow_150_1264"/><feBlend in="SourceGraphic" in2="effect2_dropShadow_150_1264" result="shape"/></filter></defs></svg>