<svg width="24" height="24" fill="none" xmlns="http://www.w3.org/2000/svg"><path fill-rule="evenodd" clip-rule="evenodd" d="M12 7a2 2 0 1 0-.001-4.001A2 2 0 0 0 12 7Zm0 3a2 2 0 1 0 .001 4.001A2 2 0 0 0 12 10Zm-2 9a2 2 0 1 1 4.001.001A2 2 0 0 1 10 19Z" fill="#231F20"/><mask id="a" style="mask-type:luminance" maskUnits="userSpaceOnUse" x="10" y="3" width="4" height="18"><path fill-rule="evenodd" clip-rule="evenodd" d="M12 7a2 2 0 1 0-.001-4.001A2 2 0 0 0 12 7Zm0 3a2 2 0 1 0 .001 4.001A2 2 0 0 0 12 10Zm-2 9a2 2 0 1 1 4.001.001A2 2 0 0 1 10 19Z" fill="#fff"/></mask><g mask="url(#a)"><path d="M0 0h24v24H0z"/></g></svg>