<svg width="24" height="24" fill="none" xmlns="http://www.w3.org/2000/svg"><path fill-rule="evenodd" clip-rule="evenodd" d="M3 12a2 2 0 1 1 4.001.001A2 2 0 0 1 3 12Zm9-2a2 2 0 1 0 .001 4.001A2 2 0 0 0 12 10Zm7 0a2 2 0 1 0 .001 4.001A2 2 0 0 0 19 10Z" fill="#231F20"/><mask id="a" style="mask-type:luminance" maskUnits="userSpaceOnUse" x="3" y="10" width="18" height="4"><path fill-rule="evenodd" clip-rule="evenodd" d="M3 12a2 2 0 1 1 4.001.001A2 2 0 0 1 3 12Zm9-2a2 2 0 1 0 .001 4.001A2 2 0 0 0 12 10Zm7 0a2 2 0 1 0 .001 4.001A2 2 0 0 0 19 10Z" fill="#fff"/></mask><g mask="url(#a)"><path fill="#B7BDCB" d="M0 0h24v24H0z"/></g></svg>