<svg width="16" height="16" fill="none" xmlns="http://www.w3.org/2000/svg"><path fill-rule="evenodd" clip-rule="evenodd" d="M6.576 12a.667.667 0 0 1-.486-.21L2.848 8.337a.666.666 0 1 1 .97-.912l2.75 2.927 5.606-6.135a.667.667 0 0 1 .985.899l-6.091 6.667A.665.665 0 0 1 6.58 12h-.004Z" fill="#231F20"/><mask id="a" style="mask-type:luminance" maskUnits="userSpaceOnUse" x="2" y="4" width="12" height="8"><path fill-rule="evenodd" clip-rule="evenodd" d="M6.576 12a.667.667 0 0 1-.486-.21L2.848 8.337a.666.666 0 1 1 .97-.912l2.75 2.927 5.606-6.135a.667.667 0 0 1 .985.899l-6.091 6.667A.665.665 0 0 1 6.58 12h-.004Z" fill="#fff"/></mask><g mask="url(#a)"><path fill="#B7BDCB" d="M0 0h16v16H0z"/></g></svg>