<svg width="24" height="24" fill="none" xmlns="http://www.w3.org/2000/svg"><g filter="url(#a)"><path fill-rule="evenodd" clip-rule="evenodd" d="M19 11h-6V5a1 1 0 1 0-2 0v6H5a1 1 0 1 0 0 2h6v6a1 1 0 1 0 2 0v-6h6a1 1 0 1 0 0-2Z" fill="#231F20"/><mask id="b" style="mask-type:luminance" maskUnits="userSpaceOnUse" x="4" y="4" width="16" height="16"><path fill-rule="evenodd" clip-rule="evenodd" d="M19 11h-6V5a1 1 0 1 0-2 0v6H5a1 1 0 1 0 0 2h6v6a1 1 0 1 0 2 0v-6h6a1 1 0 1 0 0-2Z" fill="#fff"/></mask><g filter="url(#c)" mask="url(#b)"><path fill="#fff" d="M0 0h24v24H0z"/></g></g><defs><filter id="a" x="-2" y="-1" width="28" height="28" filterUnits="userSpaceOnUse" color-interpolation-filters="sRGB"><feFlood flood-opacity="0" result="BackgroundImageFix"/><feColorMatrix in="SourceAlpha" values="0 0 0 0 0 0 0 0 0 0 0 0 0 0 0 0 0 0 127 0" result="hardAlpha"/><feOffset dy="1"/><feGaussianBlur stdDeviation=".5"/><feColorMatrix values="0 0 0 0 0 0 0 0 0 0 0 0 0 0 0 0 0 0 0.03 0"/><feBlend in2="BackgroundImageFix" result="effect1_dropShadow_1_406"/><feColorMatrix in="SourceAlpha" values="0 0 0 0 0 0 0 0 0 0 0 0 0 0 0 0 0 0 127 0" result="hardAlpha"/><feOffset dy="1"/><feGaussianBlur stdDeviation="1"/><feColorMatrix values="0 0 0 0 0 0 0 0 0 0 0 0 0 0 0 0 0 0 0.03 0"/><feBlend in2="effect1_dropShadow_1_406" result="effect2_dropShadow_1_406"/><feBlend in="SourceGraphic" in2="effect2_dropShadow_1_406" result="shape"/></filter><filter id="c" x="-2" y="-1" width="28" height="28" filterUnits="userSpaceOnUse" color-interpolation-filters="sRGB"><feFlood flood-opacity="0" result="BackgroundImageFix"/><feColorMatrix in="SourceAlpha" values="0 0 0 0 0 0 0 0 0 0 0 0 0 0 0 0 0 0 127 0" result="hardAlpha"/><feOffset dy="1"/><feGaussianBlur stdDeviation=".5"/><feColorMatrix values="0 0 0 0 0 0 0 0 0 0 0 0 0 0 0 0 0 0 0.03 0"/><feBlend in2="BackgroundImageFix" result="effect1_dropShadow_1_406"/><feColorMatrix in="SourceAlpha" values="0 0 0 0 0 0 0 0 0 0 0 0 0 0 0 0 0 0 127 0" result="hardAlpha"/><feOffset dy="1"/><feGaussianBlur stdDeviation="1"/><feColorMatrix values="0 0 0 0 0 0 0 0 0 0 0 0 0 0 0 0 0 0 0.03 0"/><feBlend in2="effect1_dropShadow_1_406" result="effect2_dropShadow_1_406"/><feBlend in="SourceGraphic" in2="effect2_dropShadow_1_406" result="shape"/></filter></defs></svg>